<svg xmlns="http://www.w3.org/2000/svg" viewBox="0 0 794.52 260"><defs><style>.cls-1{fill:#fff;}</style></defs><g id="Layer_1" data-name="Layer 1"><path class="cls-1" d="M587.46,97.93v35.28H577.38V48.13H607c15.72,0,26.16,10.8,26.16,25S622.74,97.93,607,97.93Zm18-9c10.92,0,17.64-6.36,17.64-15.72,0-9.72-6.72-16.08-17.64-16.08h-18v31.8Z"/><path class="cls-1" d="M656.22,100.81l15.48-2.28c4.2-.6,5.16-2.4,5.16-4.92,0-6.48-4.32-11.4-13.32-11.4-8.4,0-13.44,5-14.28,12.36l-9.12-2.16c1.2-10.92,10.8-18.36,23.16-18.36,16.32,0,23.16,9.36,23.16,20.52v29a50.25,50.25,0,0,0,.72,9.6h-9.36a46.8,46.8,0,0,1-.72-8.64c-2.52,4.68-8.76,10.32-19.08,10.32-11.88,0-19-8.16-19-16.92C639.06,107.89,646.14,102.25,656.22,100.81ZM676.86,109v-3.84l-18.72,2.76c-5.52.84-9.48,4-9.48,9.6,0,4.68,4,9.24,10.56,9.24C669.18,126.73,676.86,121.21,676.86,109Z"/><path class="cls-1" d="M706.38,156l13.92-29.64L695.58,75.73h11l19,40.68,17.88-40.68H753.9L717.06,156Z"/><path class="cls-1" d="M101.24,30.9A60.65,60.65,0,0,0,40.68,94.17a60.86,60.86,0,0,0,58.4,58.05l2.18,0a60.68,60.68,0,1,0,0-121.35ZM147.94,94a46.69,46.69,0,1,1-13.61-35.45A47.07,47.07,0,0,1,147.94,94Z"/><path class="cls-1" d="M101.3,127.83a36.06,36.06,0,0,0,36-35.17h-72A36.06,36.06,0,0,0,101.3,127.83Z"/><path class="cls-1" d="M281.39,133.21V70.58l-26.51,62.63H242.4L216.12,70.82v62.39h-14V48.14h19.2l27.6,64.92,27.24-64.92h19.55v85.07Z"/><path class="cls-1" d="M327.48,99.74l15-2.28c3.36-.48,4.32-2.16,4.32-4.2,0-4.92-3.36-8.88-11-8.88-7.32,0-11.4,4.68-12,10.56L311,92.06C312.12,82,321.24,73,335.64,73c18,0,24.84,10.2,24.84,21.84v29a53,53,0,0,0,.72,9.36h-13a32.49,32.49,0,0,1-.6-7.44c-2.76,4.44-8.52,9.24-18,9.24-12.24,0-19.8-8.4-19.8-17.63C309.84,106.94,317.52,101.18,327.48,99.74ZM346.8,109v-2.64l-15.24,2.28c-4.32.72-7.8,3.12-7.8,7.92,0,3.95,3,7.56,8.52,7.56C340.08,124.1,346.8,120.38,346.8,109Z"/><path class="cls-1" d="M376.68,133.21V74.78H390v7.44c3.36-6,10.68-9.12,17.28-9.12,7.68,0,14.4,3.48,17.52,10.32,4.56-7.68,11.4-10.32,18.95-10.32,10.56,0,20.64,6.72,20.64,22.2v37.91H451V97.58c0-6.84-3.47-12-11.27-12-7.32,0-12.12,5.76-12.12,13v34.67H413.88V97.58c0-6.72-3.36-12-11.28-12-7.44,0-12.12,5.52-12.12,13v34.67Z"/><path class="cls-1" d="M537.35,103.94c0,18-12.83,31.07-30.35,31.07s-30.24-13.08-30.24-31.07S489.6,73,507,73,537.35,86.06,537.35,103.94Zm-14,0c0-12.12-7.68-18.36-16.32-18.36s-16.32,6.24-16.32,18.36,7.8,18.59,16.32,18.59S523.32,116.18,523.32,103.94Z"/><path class="cls-1" d="M202.08,228.22V183.59H228.9v4.85H207.37v15.67h19.57V209H207.37v19.26Z"/><path class="cls-1" d="M262.83,213.11c0,9.32-6.43,16-15.11,16s-15.11-6.67-15.11-16,6.42-15.92,15.11-15.92S262.83,203.86,262.83,213.11Zm-25.18,0c0,7.37,4.65,11.46,10.07,11.46s10.07-4.09,10.07-11.46-4.66-11.39-10.07-11.39S237.65,205.81,237.65,213.11Z"/><path class="cls-1" d="M286.43,203.23a9.28,9.28,0,0,0-2.64-.32c-5,0-8.5,2.9-8.5,9.7v15.61h-5V198.07h4.92v5.41a9.56,9.56,0,0,1,9.12-5.85,8.82,8.82,0,0,1,2.14.25Z"/><path class="cls-1" d="M321.62,183.59c8.5,0,13.47,5,13.47,12a9.91,9.91,0,0,1-6.73,9.7,10.88,10.88,0,0,1,8.12,10.82c0,7.06-5.54,12.09-13.72,12.09H307.71V183.59Zm0,19.83c4.91,0,8.19-3.15,8.19-7.56,0-4.65-3.28-7.61-8.88-7.61H313v15.17Zm.51,20.14c5.41,0,9.06-3,9.06-7.74S328,208,322.57,208H313v15.61Z"/><path class="cls-1" d="M355.24,229.1c-7.3,0-11.33-5.41-11.33-12.09V198.07h5V216.2c0,4.4,2.08,8.37,7.43,8.37,5,0,7.68-3.53,7.68-8.31V198.07h5v24.48a39.77,39.77,0,0,0,.38,5.67h-4.85a18.81,18.81,0,0,1-.32-3.84v-.25C362.86,227.21,359.21,229.1,355.24,229.1Z"/><path class="cls-1" d="M380.67,218.71c.44,3.47,3,6.11,7.55,6.11,3.59,0,5.86-2,5.86-4.59,0-2.27-1.83-3.78-4.6-4.41l-4.91-1.13c-4.59-1.07-7.49-4-7.49-8.38,0-5,4.79-9.12,10.52-9.12,7.8,0,10.51,5,11.2,8.05l-4.47,1.64a6.35,6.35,0,0,0-6.73-5.41c-3.15,0-5.61,2-5.61,4.53,0,2.14,1.32,3.46,4,4.09l4.91,1.13c5.29,1.2,8.18,4.28,8.18,8.75s-3.71,9.13-10.89,9.13c-7.93,0-11.52-5-12-8.81Z"/><path class="cls-1" d="M409,182.39a3.78,3.78,0,1,1-3.78,3.78A3.79,3.79,0,0,1,409,182.39Zm-2.52,45.83V198.07h5v30.15Z"/><path class="cls-1" d="M426.06,228.22h-5V198.07h4.91v4.53a10.48,10.48,0,0,1,9.45-5.41c7.23,0,10.76,5.16,10.76,11.7v19.33h-5V209.65c0-4.41-2-7.93-7.49-7.93-4.84,0-7.55,4-7.55,8.75Z"/><path class="cls-1" d="M481.52,219.66a13.59,13.59,0,0,1-13.41,9.44c-8.06,0-14.92-5.91-14.92-16,0-9.51,6.67-15.86,14.29-15.86,9.13,0,14.23,6.35,14.23,15.54a14.16,14.16,0,0,1-.13,1.77H458.35v.25a9.59,9.59,0,0,0,9.76,9.82,8.91,8.91,0,0,0,9.06-6.48Zm-5-9.44c-.12-4.79-3.21-8.56-8.94-8.56a9.06,9.06,0,0,0-9.06,8.56Z"/><path class="cls-1" d="M491.09,218.71c.44,3.47,3,6.11,7.55,6.11,3.59,0,5.85-2,5.85-4.59,0-2.27-1.82-3.78-4.59-4.41L495,214.69c-4.6-1.07-7.49-4-7.49-8.38,0-5,4.78-9.12,10.51-9.12,7.81,0,10.51,5,11.21,8.05l-4.47,1.64a6.36,6.36,0,0,0-6.74-5.41c-3.15,0-5.6,2-5.6,4.53,0,2.14,1.32,3.46,4,4.09l4.91,1.13c5.29,1.2,8.19,4.28,8.19,8.75s-3.72,9.13-10.89,9.13c-7.93,0-11.52-5-12-8.81Z"/><path class="cls-1" d="M519,218.71c.44,3.47,3,6.11,7.56,6.11,3.59,0,5.85-2,5.85-4.59,0-2.27-1.82-3.78-4.59-4.41l-4.91-1.13c-4.6-1.07-7.49-4-7.49-8.38,0-5,4.78-9.12,10.51-9.12,7.8,0,10.51,5,11.2,8.05l-4.47,1.64a6.35,6.35,0,0,0-6.73-5.41c-3.15,0-5.6,2-5.6,4.53,0,2.14,1.32,3.46,4,4.09l4.91,1.13c5.29,1.2,8.18,4.28,8.18,8.75s-3.71,9.13-10.89,9.13c-7.93,0-11.52-5-12-8.81Z"/></g></svg>